<svg width="25" height="25" viewBox="0 0 25 25" fill="none" xmlns="http://www.w3.org/2000/svg">
<path d="M22.6836 10.96V15.96C22.6836 20.96 20.6836 22.96 15.6836 22.96H9.68359C4.68359 22.96 2.68359 20.96 2.68359 15.96V9.95996C2.68359 4.95996 4.68359 2.95996 9.68359 2.95996H14.6836" fill="#3A70E2"/>
<path d="M22.6836 10.96V15.96C22.6836 20.96 20.6836 22.96 15.6836 22.96H9.68359C4.68359 22.96 2.68359 20.96 2.68359 15.96V9.95996C2.68359 4.95996 4.68359 2.95996 9.68359 2.95996H14.6836" stroke="#3A70E2" stroke-width="1.5" stroke-linecap="round" stroke-linejoin="round"/>
<path d="M22.6836 10.96H18.6836C15.6836 10.96 14.6836 9.95996 14.6836 6.95996V2.95996L22.6836 10.96Z" fill="#F9FAFB" stroke="#3A70E2" stroke-width="1.5" stroke-linecap="round" stroke-linejoin="round"/>
<path d="M7.68359 13.96H13.6836" stroke="#F9FAFB" stroke-width="1.5" stroke-linecap="round" stroke-linejoin="round"/>
<path d="M7.68359 17.96H11.6836" stroke="#F9FAFB" stroke-width="1.5" stroke-linecap="round" stroke-linejoin="round"/>
</svg>
