<svg width="21" height="21" viewBox="0 0 21 21" fill="none" xmlns="http://www.w3.org/2000/svg">
<path d="M9.84863 2.62646H8.18197C4.0153 2.62646 2.34863 4.29313 2.34863 8.4598V13.4598C2.34863 17.6265 4.0153 19.2931 8.18197 19.2931H13.182C17.3486 19.2931 19.0153 17.6265 19.0153 13.4598V11.7931" stroke="#1F2937" stroke-width="1.3" stroke-linecap="round" stroke-linejoin="round"/>
<path d="M14.0482 3.47684L7.48154 10.0435C7.23154 10.2935 6.98154 10.7852 6.93154 11.1435L6.57321 13.6518C6.43987 14.5602 7.08154 15.1935 7.98987 15.0685L10.4982 14.7102C10.8482 14.6602 11.3399 14.4102 11.5982 14.1602L18.1649 7.5935C19.2982 6.46017 19.8315 5.1435 18.1649 3.47684C16.4982 1.81017 15.1815 2.3435 14.0482 3.47684Z" stroke="#1F2937" stroke-width="1.3" stroke-miterlimit="10" stroke-linecap="round" stroke-linejoin="round"/>
<path d="M13.1064 4.41846C13.6648 6.41012 15.2231 7.96846 17.2231 8.53512" stroke="#1F2937" stroke-width="1.3" stroke-miterlimit="10" stroke-linecap="round" stroke-linejoin="round"/>
</svg>
