<svg width="25" height="25" viewBox="0 0 25 25" fill="none" xmlns="http://www.w3.org/2000/svg">
<g clip-path="url(#clip0_2059_211)">
<path d="M2.13078 22.2761H3.31621C4.05935 22.2761 4.64178 21.7036 4.64178 20.9604V19.2731C6.87206 19.4137 10.0962 19.514 12.6775 19.514C15.2691 19.514 18.4932 19.4137 20.7235 19.2731V20.9604C20.7235 21.7036 21.2961 22.2761 22.0491 22.2761H23.2345C23.9879 22.2761 24.5703 21.7036 24.5703 20.9604V15.1648C24.5703 13.4771 24.2288 12.5227 23.2949 11.3176L22.4511 10.2226C22.0795 8.41484 21.4165 6.51627 21.0651 5.77313C20.5323 4.63784 19.4879 3.96455 18.1521 3.78413C17.4792 3.70355 15.2794 3.64355 12.6775 3.64355C10.0864 3.64355 7.88606 3.71384 7.21321 3.78413C5.87735 3.94484 4.83292 4.63784 4.30064 5.7727C3.94921 6.51627 3.28578 8.41484 2.91421 10.2226L2.07035 11.3176C1.13606 12.5231 0.794922 13.4771 0.794922 15.1648V20.9604C0.794922 21.7036 1.37778 22.2761 2.13078 22.2761ZM4.94349 9.38898C5.18435 8.28413 5.66649 6.84755 5.99778 6.2647C6.26906 5.79327 6.56049 5.59184 7.10306 5.52198C7.86592 5.41141 9.57378 5.35098 12.6775 5.35098C15.7915 5.35098 17.4989 5.39127 18.2626 5.52198C18.7949 5.60213 19.0859 5.79284 19.3675 6.26513C19.7091 6.8377 20.1608 8.2837 20.4218 9.38898C20.5126 9.76055 20.3618 9.90113 19.9701 9.87113C18.3029 9.77084 16.3139 9.66027 12.6775 9.66027C9.05178 9.66027 7.06278 9.77084 5.39521 9.87113C5.00349 9.90113 4.86292 9.76055 4.94306 9.38898M5.35449 16.9126C4.40049 16.9126 3.68735 16.1891 3.68735 15.245C3.68735 14.2906 4.40049 13.5778 5.35449 13.5778C6.30892 13.5778 7.02206 14.2906 7.02206 15.245C7.02206 16.1891 6.30892 16.9121 5.35492 16.9121M20.0103 16.9121C19.0559 16.9121 18.3432 16.1887 18.3432 15.2446C18.3432 14.2901 19.0559 13.5774 20.0103 13.5774C20.9545 13.5774 21.6775 14.2901 21.6775 15.2446C21.6775 16.1887 20.9545 16.9121 20.0103 16.9121ZM10.0161 16.4497C9.31278 16.4497 8.82035 15.9474 8.82035 15.2441C8.82035 14.531 9.31278 14.039 10.0161 14.039H15.3496C16.0525 14.039 16.5449 14.531 16.5449 15.2441C16.5449 15.947 16.0525 16.4497 15.3492 16.4497H10.0161Z" fill="#005AFF"/>
</g>
<defs>
<clipPath id="clip0_2059_211">
<rect width="24" height="24" fill="white" transform="translate(0.683594 0.959961)"/>
</clipPath>
</defs>
</svg>
