<svg width="23" height="23" viewBox="0 0 23 23" fill="none" xmlns="http://www.w3.org/2000/svg">
<path d="M19.9316 6.44173C16.8791 6.13923 13.8083 5.9834 10.7466 5.9834C8.93164 5.9834 7.11664 6.07507 5.30164 6.2584L3.43164 6.44173" stroke="#EC2D30" stroke-width="1.3" stroke-linecap="round" stroke-linejoin="round"/>
<path d="M8.47363 5.51596L8.6753 4.31512C8.82197 3.44429 8.93197 2.79346 10.4811 2.79346H12.8828C14.432 2.79346 14.5511 3.48096 14.6886 4.32429L14.8903 5.51596" stroke="#EC2D30" stroke-width="1.3" stroke-linecap="round" stroke-linejoin="round"/>
<path d="M17.9607 9.33838L17.3648 18.5692C17.264 20.0084 17.1815 21.1267 14.624 21.1267H8.73901C6.18151 21.1267 6.09901 20.0084 5.99818 18.5692L5.40234 9.33838" stroke="#EC2D30" stroke-width="1.3" stroke-linecap="round" stroke-linejoin="round"/>
<path d="M10.1504 16.085H13.2029" stroke="#EC2D30" stroke-width="1.3" stroke-linecap="round" stroke-linejoin="round"/>
<path d="M9.38965 12.4185H13.973" stroke="#EC2D30" stroke-width="1.3" stroke-linecap="round" stroke-linejoin="round"/>
</svg>
