<svg width="25" height="20" viewBox="0 0 25 20" fill="none" xmlns="http://www.w3.org/2000/svg">
<path d="M2.13078 19.2761H3.31621C4.05935 19.2761 4.64178 18.7036 4.64178 17.9604V16.2731C6.87206 16.4137 10.0962 16.514 12.6775 16.514C15.2691 16.514 18.4932 16.4137 20.7235 16.2731V17.9604C20.7235 18.7036 21.2961 19.2761 22.0491 19.2761H23.2345C23.9879 19.2761 24.5703 18.7036 24.5703 17.9604V12.1648C24.5703 10.4771 24.2288 9.5227 23.2949 8.31755L22.4511 7.22256C22.0795 5.41484 21.4165 3.51627 21.0651 2.77313C20.5323 1.63784 19.4879 0.964555 18.1521 0.784126C17.4792 0.703555 15.2794 0.643555 12.6775 0.643555C10.0864 0.643555 7.88606 0.71384 7.21321 0.784126C5.87735 0.94484 4.83292 1.63784 4.30064 2.7727C3.94921 3.51627 3.28578 5.41484 2.91421 7.22256L2.07035 8.31755C1.13606 9.52313 0.794922 10.4771 0.794922 12.1648V17.9604C0.794922 18.7036 1.37778 19.2761 2.13078 19.2761ZM4.94349 6.38898C5.18435 5.28413 5.66649 3.84755 5.99778 3.2647C6.26906 2.79327 6.56049 2.59184 7.10306 2.52198C7.86592 2.41141 9.57378 2.35098 12.6775 2.35098C15.7915 2.35098 17.4989 2.39127 18.2626 2.52198C18.7949 2.60213 19.0859 2.79284 19.3675 3.26513C19.7091 3.8377 20.1608 5.2837 20.4218 6.38898C20.5126 6.76055 20.3618 6.90113 19.9701 6.87113C18.3029 6.77084 16.3139 6.66027 12.6775 6.66027C9.05178 6.66027 7.06278 6.77084 5.39521 6.87113C5.00349 6.90113 4.86292 6.76055 4.94306 6.38898M5.35449 13.9126C4.40049 13.9126 3.68735 13.1891 3.68735 12.245C3.68735 11.2906 4.40049 10.5778 5.35449 10.5778C6.30892 10.5778 7.02206 11.2906 7.02206 12.245C7.02206 13.1891 6.30892 13.9121 5.35492 13.9121M20.0103 13.9121C19.0559 13.9121 18.3432 13.1887 18.3432 12.2446C18.3432 11.2901 19.0559 10.5774 20.0103 10.5774C20.9545 10.5774 21.6775 11.2901 21.6775 12.2446C21.6775 13.1887 20.9545 13.9121 20.0103 13.9121ZM10.0161 13.4497C9.31278 13.4497 8.82035 12.9474 8.82035 12.2441C8.82035 11.531 9.31278 11.039 10.0161 11.039H15.3496C16.0525 11.039 16.5449 11.531 16.5449 12.2441C16.5449 12.947 16.0525 13.4497 15.3492 13.4497H10.0161Z" fill="#F15A29"/>
</svg>
