<svg width="445" height="81" viewBox="0 0 445 81" fill="none" xmlns="http://www.w3.org/2000/svg">
<path d="M253.684 78.208C287.657 74.0255 371.62 66.9153 435.684 71.9343" stroke="#EC2D30" stroke-width="4" stroke-linecap="round" stroke-linejoin="round"/>
<path d="M15.7065 45.832C13.8505 45.832 12.0665 45.544 10.3545 44.968C8.65847 44.376 7.17047 43.536 5.89047 42.448C4.61047 41.344 3.69047 40.024 3.13047 38.488L8.62647 36.472C8.85047 37.112 9.30647 37.696 9.99447 38.224C10.6825 38.752 11.5225 39.176 12.5145 39.496C13.5065 39.816 14.5705 39.976 15.7065 39.976C16.8745 39.976 17.9625 39.8 18.9705 39.448C19.9945 39.08 20.8185 38.576 21.4425 37.936C22.0665 37.28 22.3785 36.52 22.3785 35.656C22.3785 34.776 22.0505 34.056 21.3945 33.496C20.7385 32.92 19.8985 32.464 18.8745 32.128C17.8505 31.792 16.7945 31.536 15.7065 31.36C13.3225 30.992 11.1865 30.424 9.29847 29.656C7.41047 28.888 5.91447 27.824 4.81047 26.464C3.72247 25.104 3.17847 23.344 3.17847 21.184C3.17847 19.152 3.76247 17.376 4.93047 15.856C6.09847 14.336 7.63447 13.152 9.53847 12.304C11.4425 11.456 13.4985 11.032 15.7065 11.032C17.5465 11.032 19.3225 11.32 21.0345 11.896C22.7465 12.472 24.2425 13.312 25.5225 14.416C26.8185 15.52 27.7465 16.848 28.3065 18.4L22.7865 20.392C22.5625 19.752 22.1065 19.168 21.4185 18.64C20.7305 18.112 19.8905 17.696 18.8985 17.392C17.9065 17.072 16.8425 16.912 15.7065 16.912C14.5705 16.896 13.4905 17.08 12.4665 17.464C11.4585 17.832 10.6345 18.336 9.99447 18.976C9.35447 19.616 9.03447 20.352 9.03447 21.184C9.03447 22.256 9.33047 23.064 9.92247 23.608C10.5305 24.152 11.3385 24.552 12.3465 24.808C13.3545 25.048 14.4745 25.272 15.7065 25.48C17.9465 25.832 20.0185 26.424 21.9225 27.256C23.8265 28.088 25.3545 29.2 26.5065 30.592C27.6585 31.968 28.2345 33.656 28.2345 35.656C28.2345 37.688 27.6585 39.472 26.5065 41.008C25.3545 42.528 23.8265 43.712 21.9225 44.56C20.0185 45.408 17.9465 45.832 15.7065 45.832ZM33.0011 21.208H38.8571V45.208H33.0011V21.208ZM35.9771 18.112C35.1131 18.112 34.3851 17.832 33.7931 17.272C33.2011 16.696 32.9051 15.976 32.9051 15.112C32.9051 14.264 33.2011 13.552 33.7931 12.976C34.3851 12.4 35.1051 12.112 35.9531 12.112C36.8011 12.112 37.5131 12.4 38.0891 12.976C38.6811 13.552 38.9771 14.264 38.9771 15.112C38.9771 15.976 38.6891 16.696 38.1131 17.272C37.5371 17.832 36.8251 18.112 35.9771 18.112ZM61.8716 21.208H67.7276V45.664C67.7276 47.392 67.3756 48.96 66.6716 50.368C65.9676 51.792 65.0076 53.008 63.7916 54.016C62.5756 55.04 61.1836 55.824 59.6156 56.368C58.0476 56.928 56.3996 57.208 54.6716 57.208C52.9916 57.208 51.3756 56.864 49.8236 56.176C48.2716 55.488 46.8956 54.544 45.6956 53.344C44.5116 52.16 43.6076 50.808 42.9836 49.288L48.3356 46.864C48.6556 47.744 49.1356 48.512 49.7756 49.168C50.4316 49.84 51.1836 50.36 52.0316 50.728C52.8796 51.112 53.7596 51.304 54.6716 51.304C55.5996 51.304 56.4876 51.176 57.3356 50.92C58.1996 50.664 58.9756 50.288 59.6636 49.792C60.3516 49.312 60.8876 48.72 61.2716 48.016C61.6716 47.328 61.8716 46.544 61.8716 45.664V42.28C61.1196 43.336 60.1756 44.192 59.0396 44.848C57.9036 45.504 56.5916 45.832 55.1036 45.832C53.3756 45.832 51.7596 45.504 50.2556 44.848C48.7516 44.192 47.4236 43.288 46.2716 42.136C45.1356 40.968 44.2396 39.624 43.5836 38.104C42.9436 36.584 42.6236 34.952 42.6236 33.208C42.6236 31.464 42.9436 29.832 43.5836 28.312C44.2396 26.792 45.1356 25.456 46.2716 24.304C47.4236 23.136 48.7516 22.224 50.2556 21.568C51.7596 20.912 53.3756 20.584 55.1036 20.584C56.5916 20.584 57.9036 20.912 59.0396 21.568C60.1756 22.208 61.1196 23.056 61.8716 24.112V21.208ZM55.1756 40.192C56.4076 40.192 57.4956 39.88 58.4396 39.256C59.3996 38.616 60.1516 37.768 60.6956 36.712C61.2396 35.64 61.5116 34.472 61.5116 33.208C61.5116 31.928 61.2316 30.76 60.6716 29.704C60.1276 28.648 59.3756 27.8 58.4156 27.16C57.4716 26.52 56.3916 26.2 55.1756 26.2C53.9756 26.2 52.8796 26.52 51.8876 27.16C50.8956 27.784 50.1036 28.624 49.5116 29.68C48.9196 30.736 48.6236 31.912 48.6236 33.208C48.6236 34.504 48.9196 35.68 49.5116 36.736C50.1036 37.792 50.8956 38.632 51.8876 39.256C52.8796 39.88 53.9756 40.192 55.1756 40.192ZM95.4851 30.04V45.208H89.6291V31.576C89.6291 30.632 89.3971 29.776 88.9331 29.008C88.4691 28.224 87.8451 27.608 87.0611 27.16C86.2931 26.696 85.4371 26.464 84.4931 26.464C83.5491 26.464 82.6851 26.696 81.9011 27.16C81.1331 27.608 80.5171 28.224 80.0531 29.008C79.6051 29.776 79.3811 30.632 79.3811 31.576V45.208H73.5251L73.5011 21.208H79.3571L79.3811 23.344C80.1971 22.48 81.1731 21.8 82.3091 21.304C83.4451 20.792 84.6691 20.536 85.9811 20.536C87.7251 20.536 89.3171 20.968 90.7571 21.832C92.1971 22.68 93.3411 23.824 94.1891 25.264C95.0531 26.688 95.4851 28.28 95.4851 30.04ZM112.518 45.208V11.608H118.374V45.208H112.518ZM146.86 30.04V45.208H141.004V31.576C141.004 30.632 140.772 29.776 140.308 29.008C139.844 28.224 139.22 27.608 138.436 27.16C137.668 26.696 136.812 26.464 135.868 26.464C134.924 26.464 134.06 26.696 133.276 27.16C132.508 27.608 131.892 28.224 131.428 29.008C130.98 29.776 130.756 30.632 130.756 31.576V45.208H124.9L124.876 21.208H130.732L130.756 23.344C131.572 22.48 132.548 21.8 133.684 21.304C134.82 20.792 136.044 20.536 137.356 20.536C139.1 20.536 140.692 20.968 142.132 21.832C143.572 22.68 144.716 23.824 145.564 25.264C146.428 26.688 146.86 28.28 146.86 30.04ZM176.037 27.064H171.381V45.208H165.525V27.064H161.973V21.208H165.525V13.672H171.381V21.208H176.037V27.064ZM190.374 45.832C188.166 45.832 186.15 45.264 184.326 44.128C182.518 42.992 181.07 41.472 179.982 39.568C178.91 37.648 178.374 35.528 178.374 33.208C178.374 31.448 178.686 29.808 179.31 28.288C179.934 26.752 180.79 25.408 181.878 24.256C182.982 23.088 184.262 22.176 185.718 21.52C187.174 20.864 188.726 20.536 190.374 20.536C192.582 20.536 194.59 21.104 196.398 22.24C198.222 23.376 199.67 24.904 200.742 26.824C201.83 28.744 202.374 30.872 202.374 33.208C202.374 34.952 202.062 36.584 201.438 38.104C200.814 39.624 199.95 40.968 198.846 42.136C197.758 43.288 196.486 44.192 195.03 44.848C193.59 45.504 192.038 45.832 190.374 45.832ZM190.374 39.976C191.542 39.976 192.59 39.664 193.518 39.04C194.446 38.416 195.174 37.592 195.702 36.568C196.246 35.544 196.518 34.424 196.518 33.208C196.518 31.96 196.238 30.824 195.678 29.8C195.134 28.76 194.39 27.936 193.446 27.328C192.518 26.704 191.494 26.392 190.374 26.392C189.222 26.392 188.182 26.704 187.254 27.328C186.326 27.952 185.59 28.784 185.046 29.824C184.502 30.864 184.23 31.992 184.23 33.208C184.23 34.472 184.51 35.616 185.07 36.64C185.63 37.664 186.374 38.48 187.302 39.088C188.246 39.68 189.27 39.976 190.374 39.976ZM229.436 11.608H236.18L248.396 45.208H242.18L240.02 39.256H225.62L223.46 45.208H217.244L229.436 11.608ZM227.756 33.4H237.86L232.796 19.552L227.756 33.4ZM252.423 45.208V9.208H258.279V45.208H252.423ZM280.475 45.832C279.243 45.832 278.035 45.624 276.851 45.208C275.683 44.792 274.619 44.176 273.659 43.36L277.403 38.848C277.755 39.136 278.187 39.4 278.699 39.64C279.211 39.864 279.803 39.976 280.475 39.976C281.355 39.976 282.155 39.752 282.875 39.304C283.595 38.84 284.171 38.24 284.603 37.504C285.051 36.752 285.275 35.936 285.275 35.056V11.608H291.131V35.056C291.131 37.024 290.651 38.824 289.691 40.456C288.731 42.072 287.443 43.376 285.827 44.368C284.211 45.344 282.427 45.832 280.475 45.832ZM315.003 21.208H320.859V45.208H315.003L314.739 42.232C314.083 43.304 313.211 44.176 312.123 44.848C311.051 45.504 309.779 45.832 308.307 45.832C306.531 45.832 304.867 45.496 303.315 44.824C301.763 44.152 300.395 43.224 299.211 42.04C298.043 40.856 297.123 39.488 296.451 37.936C295.795 36.384 295.467 34.72 295.467 32.944C295.467 31.232 295.779 29.624 296.403 28.12C297.043 26.616 297.931 25.296 299.067 24.16C300.203 23.024 301.515 22.136 303.003 21.496C304.491 20.856 306.091 20.536 307.803 20.536C309.387 20.536 310.803 20.888 312.051 21.592C313.315 22.296 314.387 23.192 315.267 24.28L315.003 21.208ZM308.163 40.192C309.411 40.192 310.515 39.88 311.475 39.256C312.435 38.632 313.187 37.792 313.731 36.736C314.275 35.664 314.547 34.488 314.547 33.208C314.547 31.912 314.275 30.736 313.731 29.68C313.187 28.608 312.427 27.76 311.451 27.136C310.491 26.512 309.395 26.2 308.163 26.2C306.931 26.2 305.803 26.52 304.779 27.16C303.771 27.784 302.963 28.624 302.355 29.68C301.763 30.736 301.467 31.912 301.467 33.208C301.467 34.504 301.771 35.68 302.379 36.736C302.987 37.792 303.795 38.632 304.803 39.256C305.827 39.88 306.947 40.192 308.163 40.192ZM345.178 27.064L333.106 39.352H345.178V45.208H324.682V39.352L336.754 27.064H324.682V21.208H345.178V27.064ZM359.967 45.832C357.759 45.832 355.743 45.264 353.919 44.128C352.111 42.992 350.663 41.464 349.575 39.544C348.503 37.624 347.967 35.504 347.967 33.184C347.967 31.44 348.279 29.808 348.903 28.288C349.527 26.752 350.383 25.408 351.471 24.256C352.575 23.088 353.855 22.176 355.311 21.52C356.767 20.864 358.319 20.536 359.967 20.536C361.839 20.536 363.551 20.936 365.103 21.736C366.671 22.52 367.999 23.6 369.087 24.976C370.175 26.352 370.967 27.92 371.463 29.68C371.959 31.44 372.071 33.28 371.799 35.2H354.255C354.479 36.096 354.847 36.904 355.359 37.624C355.871 38.328 356.519 38.896 357.303 39.328C358.087 39.744 358.975 39.96 359.967 39.976C360.991 39.992 361.919 39.752 362.751 39.256C363.599 38.744 364.303 38.056 364.863 37.192L370.839 38.584C369.863 40.712 368.407 42.456 366.471 43.816C364.535 45.16 362.367 45.832 359.967 45.832ZM354.063 30.808H365.871C365.695 29.848 365.319 28.984 364.743 28.216C364.183 27.432 363.487 26.808 362.655 26.344C361.823 25.88 360.927 25.648 359.967 25.648C359.007 25.648 358.119 25.88 357.303 26.344C356.487 26.792 355.791 27.408 355.215 28.192C354.655 28.96 354.271 29.832 354.063 30.808ZM386.358 45.832C384.15 45.832 382.134 45.264 380.31 44.128C378.502 42.992 377.054 41.464 375.966 39.544C374.894 37.624 374.358 35.504 374.358 33.184C374.358 31.44 374.67 29.808 375.294 28.288C375.918 26.752 376.774 25.408 377.862 24.256C378.966 23.088 380.246 22.176 381.702 21.52C383.158 20.864 384.71 20.536 386.358 20.536C388.23 20.536 389.942 20.936 391.494 21.736C393.062 22.52 394.39 23.6 395.478 24.976C396.566 26.352 397.358 27.92 397.854 29.68C398.35 31.44 398.462 33.28 398.19 35.2H380.646C380.87 36.096 381.238 36.904 381.75 37.624C382.262 38.328 382.91 38.896 383.694 39.328C384.478 39.744 385.366 39.96 386.358 39.976C387.382 39.992 388.31 39.752 389.142 39.256C389.99 38.744 390.694 38.056 391.254 37.192L397.23 38.584C396.254 40.712 394.798 42.456 392.862 43.816C390.926 45.16 388.758 45.832 386.358 45.832ZM380.454 30.808H392.262C392.086 29.848 391.71 28.984 391.134 28.216C390.574 27.432 389.878 26.808 389.046 26.344C388.214 25.88 387.318 25.648 386.358 25.648C385.398 25.648 384.51 25.88 383.694 26.344C382.878 26.792 382.182 27.408 381.606 28.192C381.046 28.96 380.662 29.832 380.454 30.808ZM402.119 45.208L402.095 21.208H407.951L407.975 23.344C408.791 22.48 409.767 21.8 410.903 21.304C412.039 20.792 413.263 20.536 414.575 20.536C415.455 20.536 416.335 20.664 417.215 20.92L414.911 26.824C414.303 26.584 413.695 26.464 413.087 26.464C412.143 26.464 411.279 26.696 410.495 27.16C409.727 27.608 409.111 28.224 408.647 29.008C408.199 29.776 407.975 30.632 407.975 31.576V45.208H402.119ZM436.878 21.208H442.734V45.208H436.878L436.614 42.232C435.958 43.304 435.086 44.176 433.998 44.848C432.926 45.504 431.654 45.832 430.182 45.832C428.406 45.832 426.742 45.496 425.19 44.824C423.638 44.152 422.27 43.224 421.086 42.04C419.918 40.856 418.998 39.488 418.326 37.936C417.67 36.384 417.342 34.72 417.342 32.944C417.342 31.232 417.654 29.624 418.278 28.12C418.918 26.616 419.806 25.296 420.942 24.16C422.078 23.024 423.39 22.136 424.878 21.496C426.366 20.856 427.966 20.536 429.678 20.536C431.262 20.536 432.678 20.888 433.926 21.592C435.19 22.296 436.262 23.192 437.142 24.28L436.878 21.208ZM430.038 40.192C431.286 40.192 432.39 39.88 433.35 39.256C434.31 38.632 435.062 37.792 435.606 36.736C436.15 35.664 436.422 34.488 436.422 33.208C436.422 31.912 436.15 30.736 435.606 29.68C435.062 28.608 434.302 27.76 433.326 27.136C432.366 26.512 431.27 26.2 430.038 26.2C428.806 26.2 427.678 26.52 426.654 27.16C425.646 27.784 424.838 28.624 424.23 29.68C423.638 30.736 423.342 31.912 423.342 33.208C423.342 34.504 423.646 35.68 424.254 36.736C424.862 37.792 425.67 38.632 426.678 39.256C427.702 39.88 428.822 40.192 430.038 40.192Z" fill="#111827"/>
</svg>
