<svg width="25" height="25" viewBox="0 0 25 25" fill="none" xmlns="http://www.w3.org/2000/svg">
<path d="M15.6836 20.758C17.1306 20.908 19.0836 21.372 20.1216 20.048C20.6836 19.331 20.6836 18.238 20.6836 16.053V9.86702C20.6836 7.68102 20.6836 6.58903 20.1216 5.87203C19.0836 4.54803 17.1316 5.01202 15.6836 5.16202M12.6836 13.96V11.96M19.6836 20.687H22.6836M2.68359 20.96H5.68359M4.68359 10.164C4.68359 8.09103 4.68359 7.05402 5.04159 6.21302C5.33163 5.51906 5.8027 4.91572 6.40559 4.46602C7.11659 3.94002 8.07159 3.75402 9.98059 3.38302C11.9656 2.99802 12.9576 2.80502 13.7306 3.11302C14.3831 3.37815 14.9242 3.86027 15.2626 4.47802C15.6836 5.23502 15.6836 6.31302 15.6836 8.47003V17.452C15.6836 19.608 15.6836 20.686 15.2626 21.442C14.9246 22.0605 14.3835 22.5434 13.7306 22.809C12.9576 23.116 11.9656 22.923 9.98059 22.538C8.07059 22.167 7.11659 21.981 6.40559 21.455C5.8027 21.0053 5.33163 20.402 5.04159 19.708C4.68359 18.865 4.68359 17.83 4.68359 15.756V10.164Z" stroke="#F9FAFB" stroke-width="1.5" stroke-linecap="round" stroke-linejoin="round"/>
</svg>
