<svg width="25" height="25" viewBox="0 0 25 25" fill="none" xmlns="http://www.w3.org/2000/svg">
<path d="M12.6844 14.966L6.52844 22.193C6.33265 22.4208 6.09192 22.6058 5.82132 22.7363C5.55072 22.8669 5.25608 22.9401 4.95587 22.9514C4.65565 22.9628 4.35632 22.912 4.07664 22.8023C3.79695 22.6926 3.54294 22.5263 3.3305 22.3139C3.11806 22.1015 2.95178 21.8474 2.84208 21.5678C2.73238 21.2881 2.68161 20.9887 2.69297 20.6885C2.70432 20.3883 2.77755 20.0937 2.90806 19.8231C3.03857 19.5525 3.22356 19.3117 3.45144 19.116L10.6784 12.96M22.6844 12.865L16.5894 18.96M12.7794 2.95996L6.68444 9.05496M12.0174 3.72196L7.44644 8.29296C7.44644 8.29296 9.73244 11.341 12.0174 13.627C14.3034 15.912 17.3514 18.198 17.3514 18.198L21.9224 13.627C21.9224 13.627 19.6364 10.579 17.3514 8.29296C15.0654 6.00796 12.0174 3.72196 12.0174 3.72196Z" stroke="#F9FAFB" stroke-width="1.5" stroke-linecap="round" stroke-linejoin="round"/>
</svg>
