<svg width="183" height="150" viewBox="0 0 183 150" fill="none" xmlns="http://www.w3.org/2000/svg">
<g opacity="0.8">
<path d="M38.14 58.3436C38.14 58.3436 42.6347 34.8022 72.0999 18.6175C72.0999 18.6175 99.5674 3.90412 129.033 21.0697C129.033 21.0697 145.084 31.3838 147.296 35.5477C147.296 35.5477 132.029 15.1844 112.053 9.29903C112.053 9.29903 94.0739 2.43278 75.0964 8.31814C75.0964 8.31814 54.1211 13.713 40.1377 30.3882C40.1377 30.3882 31.8125 37.7449 25.9844 58.3436H38.14Z" fill="#F15A29"/>
<path d="M155.431 58.3437C155.431 58.3437 146.512 28.9169 118.045 19.5984C118.045 19.5984 89.5791 7.82774 65.6074 26.4647C65.6074 26.4647 89.0797 12.2418 116.547 24.9934C116.547 24.9934 138.162 34.3118 144.834 58.3437H155.431Z" fill="#111827"/>
<path d="M40.2717 98.1377C40.2717 98.1377 44.5716 117.932 72.7483 131.542C72.7483 131.542 99.0123 143.916 127.189 129.482C127.189 129.482 142.536 120.806 144.653 117.309C144.653 117.309 130.056 134.431 110.953 139.379C110.953 139.379 93.7585 145.152 75.6149 140.203C75.6149 140.203 55.5586 135.667 42.1844 121.645C42.1844 121.645 34.2238 115.46 28.6504 98.1377H40.2717Z" fill="#111827"/>
<path d="M152.434 98.1377C152.434 98.1377 143.904 122.881 116.681 130.718C116.681 130.718 89.4581 140.615 66.5352 124.945C66.5352 124.945 88.9786 136.907 115.248 126.181C115.248 126.181 135.918 118.344 142.296 98.1377H152.429H152.434Z" fill="#F15A29"/>
<path d="M94.8231 54.665L99.8172 59.0791H71.4707L76.325 54.665H94.8231Z" fill="#F15A29"/>
<path d="M76.0938 52.458V54.0225L94.5719 53.9293V52.458H76.0938Z" fill="#F15A29"/>
<path d="M101.065 38.5391C101.065 38.5391 97.5691 40.5008 96.5703 44.9149C96.5703 44.9149 101.065 40.9913 101.065 38.5391Z" fill="#F15A29"/>
<path d="M99.8164 42.3252C99.8164 42.3252 108.556 48.4656 113.55 49.4465C113.55 49.4465 108.556 44.5273 99.8164 42.3252Z" fill="#F15A29"/>
<path d="M73.7374 47.9167C73.7374 47.9167 78.287 48.7701 81.4333 47.9167L77.5829 47.083L79.0861 45.592L77.0885 43.6302L79.9151 44.3561L79.5855 42.1589L81.683 44.3561C81.683 44.3561 82.0826 45.1016 82.0826 44.1207C82.0826 44.1207 80.4395 39.9617 77.0135 37.1367L77.9075 41.4232C77.9075 41.4232 78.0873 42.1589 77.0885 42.1589L73.7324 41.4232C73.7324 41.4232 76.589 44.1207 76.589 45.592L73.7324 47.9167H73.7374Z" fill="#F15A29"/>
<path d="M88.9451 47.916C88.9451 47.916 81.9483 42.8938 87.2421 41.4225C87.2421 41.4225 87.2271 41.4127 87.1971 41.3882C85.644 40.2503 83.4566 41.4323 83.5415 43.3352C83.5964 44.6398 84.0209 45.6207 85.0846 46.5722C85.0846 46.5722 87.307 48.2789 88.9451 47.916Z" fill="#F15A29"/>
<path d="M86.2388 48.6325C86.2388 48.6325 88.3014 49.6821 91.0082 50.0205C92.7212 50.2363 94.4841 49.7213 95.6727 48.4903C96.1921 47.9508 96.5916 47.2985 96.5716 46.5677C96.5716 46.5677 96.4867 43.6349 94.2144 41.7417C94.2144 41.7417 91.198 38.7304 85.6445 39.7064C85.6445 39.7064 90.6636 40.6873 92.4465 42.5804C92.4465 42.5804 94.3093 44.091 94.9086 46.0135C95.1133 46.6805 94.9735 47.4064 94.529 47.9508C94.0846 48.4952 93.2905 48.8238 92.037 49.0249C91.7723 49.069 91.2279 49.1573 90.9633 49.118L86.2338 48.6276L86.2388 48.6325Z" fill="#F15A29"/>
<path d="M92.0262 33.041L87.3867 38.9264C87.3867 38.9264 93.075 35.7826 92.0262 33.041Z" fill="#F15A29"/>
<path d="M94.8224 29.9369C94.8224 29.9369 92.3254 29.4465 91.826 31.8987C91.826 31.8987 90.6923 28.8432 94.8224 28.8972C94.8224 28.8972 102.299 29.2601 104.286 34.3853C104.286 34.3853 104.701 36.759 102.204 38.1568C102.204 38.1568 103.597 37.0043 102.708 34.3853C102.708 34.3853 101.04 30.7805 94.8224 29.9369Z" fill="#F15A29"/>
<path d="M48.6276 95.6176L25.0654 96.5838C24.8407 96.5936 24.6559 96.7653 24.6359 96.9909C24.551 97.9031 24.1365 100.135 22.1638 100.527H9.77349C9.77349 100.527 9.77349 100.527 9.7635 100.527C8.21033 100.252 8.17038 98.0012 8.18037 97.1478L7.94565 78.4716C7.94565 78.4422 8.68977 74.0625 13.1395 72.1007C13.1545 72.0958 13.1545 72.0811 13.1395 72.0713C12.685 71.885 7.27144 69.673 7.17656 69.6338C7.16657 69.5602 6.7171 66.1958 10.173 65.7102C10.173 65.7102 13.3093 65.1021 14.8075 67.0639C14.8075 67.0639 15.2021 67.2208 15.1671 70.1243C15.1671 70.1243 15.1671 72.086 18.1636 69.1434L24.1515 63.2629C24.1515 63.2629 24.1565 63.2629 24.1615 63.2629L26.6535 62.7725H49.7213C49.986 62.7725 50.1907 62.9932 50.1708 63.2531L50.1608 63.3463C50.1408 63.5768 49.951 63.7534 49.7163 63.7534C46.7798 63.7435 29.0457 63.7239 25.9893 64.9108L19.6968 70.5951C19.6868 70.6049 19.6968 70.6245 19.7068 70.6245L45.4563 72.0566C45.7809 72.0762 45.9757 72.4097 45.8309 72.6942L45.761 72.8315C45.6861 72.9786 45.5312 73.0767 45.3614 73.0767C42.4848 73.0767 17.9938 73.1356 15.1721 74.0576C15.1721 74.0576 11.1768 75.529 10.6774 78.9621V94.1659C10.6774 94.1659 10.178 95.1468 14.1733 95.6373H21.6644C21.6644 95.6373 22.1039 95.5245 23.5872 94.5583L23.6621 94.5387L48.6326 95.1517V95.6422L48.6276 95.6176Z" fill="#111827"/>
<path d="M12.17 83.4295C12.13 84.121 12.6894 84.7046 13.3885 84.7046H24.006C24.2607 84.7046 25.2346 82.7232 25.8688 81.3745C26.1784 80.7222 25.8388 79.9473 25.1447 79.7217L14.1227 76.0875C13.3586 75.8374 12.5595 76.372 12.5196 77.1665L12.17 83.4295Z" fill="#111827" stroke="#111827" stroke-width="0.492513" stroke-miterlimit="10"/>
<path d="M19.8758 78.8539L15.7107 77.6768C14.587 77.358 13.5782 77.4512 13.4484 77.8828L13.0638 79.1972C12.9939 79.4375 13.4434 79.7808 14.0726 79.9574C14.7019 80.134 15.2662 80.0849 15.3411 79.8397L15.6757 78.692C15.8006 78.5351 16.2401 78.5645 16.8094 78.7264L19.666 79.5356C20.1654 79.6778 20.6099 79.6337 20.6648 79.4424C20.7148 79.2512 20.3602 78.9863 19.8708 78.849L19.8758 78.8539Z" fill="#111827" stroke="#111827" stroke-width="0.246256" stroke-miterlimit="10"/>
<path d="M20.1356 79.7069L17.214 78.8388C16.425 78.6034 15.6908 78.7309 15.571 79.1233L15.2014 80.3151C15.1315 80.5358 15.4361 80.8202 15.8756 80.9477C16.3151 81.0802 16.7296 81.0066 16.7945 80.7859L17.1141 79.7412C17.214 79.599 17.5286 79.6039 17.9282 79.7216L19.9358 80.32C20.2854 80.423 20.61 80.369 20.66 80.1925C20.7099 80.0208 20.4702 79.8001 20.1306 79.6971L20.1356 79.7069Z" fill="#111827" stroke="#111827" stroke-width="0.246256" stroke-miterlimit="10"/>
<path d="M20.4099 80.5019L18.2025 79.8447C17.6082 79.6681 17.0539 79.7564 16.964 80.0458L16.6943 80.9237C16.6444 81.0855 16.8741 81.2964 17.2087 81.3945C17.5433 81.4926 17.8529 81.4436 17.9029 81.2817L18.1376 80.5117C18.2125 80.4038 18.4522 80.4087 18.7519 80.5019L20.2701 80.9531C20.5348 81.0316 20.7795 80.9923 20.8145 80.8648C20.8494 80.7373 20.6696 80.5755 20.4099 80.497V80.5019Z" fill="#111827" stroke="#111827" stroke-width="0.246256" stroke-miterlimit="10"/>
<path d="M43.1329 85.6855H21.5684L21.7032 92.13C21.7032 92.13 22.1527 93.1992 23.6509 93.1992L44.1267 92.5518V92.2771L23.8656 92.0613C23.7058 92.0613 23.556 91.9878 23.4561 91.8652C23.3163 91.6984 23.1565 91.4287 23.1515 91.0805V87.1569L43.1279 85.6855H43.1329Z" fill="#111827"/>
<path d="M23.6582 87.9961L43.1352 88.3051L23.6582 89.0996V87.9961Z" fill="#111827"/>
<path d="M23.6582 89.8008L43.0203 90.1931L23.6582 91.2182V89.8008Z" fill="#111827"/>
<path d="M27.1837 80.6442L25.3608 83.9596C25.1661 84.3176 25.4258 84.7492 25.8403 84.7492H42.8552L26.8641 83.7683L27.1887 83.4397C27.2886 83.3367 27.4284 83.2779 27.5782 83.2779L42.8552 83.0179L27.5932 82.5422L28.1575 81.9684C28.2574 81.8654 28.4022 81.8065 28.5471 81.8065L42.8552 81.6349L27.7031 80.3646C27.4883 80.3499 27.2836 80.4578 27.1787 80.6442H27.1837Z" fill="#111827"/>
<path d="M18.6923 57.3625C18.6923 57.3625 4.17946 55.8912 0.683594 69.6237V93.1651C0.683594 93.1651 1.68241 108.369 22.6576 105.426C22.6576 105.426 42.9137 149.758 92.9646 148.433C92.9646 148.433 136.024 149.566 159.496 105.917L171.482 105.426C171.482 105.426 180.901 103.955 182.684 93.1651V70.1926C182.684 70.1926 179.647 55.4007 164.325 58.3434C164.325 58.3434 154.002 5.81172 94.5727 1.42713C94.5727 1.42713 38.6987 -5.4146 18.6923 57.3625Z" stroke="#111827" stroke-width="0.492513" stroke-miterlimit="10"/>
<path d="M13.3045 88.2606C13.3045 88.2606 11.4417 90.1586 13.3045 92.1547C13.3045 92.1547 15.5119 93.5966 16.8353 92.1547C16.8353 92.1547 18.5083 90.0213 16.8353 88.4077C16.8353 88.4077 15.437 86.7941 13.3045 88.2655V88.2606Z" fill="#111827" stroke="#111827" stroke-width="0.492513" stroke-miterlimit="10"/>
<path d="M56.2229 70.4111V75.4026H57.3524V76.1582H53.5134V75.4026H54.643V65.6104H53.5134V64.8624H57.3524V65.6104H56.2229V70.4111L60.3672 65.6104H59.2376V64.8624H62.2371V65.6104H61.4815L57.6883 70.0142L57.7493 70.0753L62.5653 75.4026H63.2293V76.1582H59.5963V75.4026H60.5427L56.2229 70.4111ZM67.0454 70.6935V75.4026H68.175V76.1582H64.3207V75.4026H65.4503V65.6104H64.3207V64.8624H68.175V65.6104H67.0454V69.9455H72.3193V65.6104H71.1898V64.8624H75.0517V65.6104H73.9221V75.4026H75.0517V76.1582H71.1898V75.4026H72.3193V70.6935H67.0454ZM78.6007 72.7695L77.5703 75.4026H78.6999V76.1582H75.9981V75.4026H76.6545L80.8751 64.6716H81.7833L86.004 75.4026H86.6604V76.1582H83.2564V75.4026H84.2867L83.2487 72.7695H78.6007ZM78.8983 72.0139H82.9511L80.9209 66.8621L78.8983 72.0139ZM91.5221 65.7096H88.2708V67.0224H87.4236V64.8624H97.2158V67.0224H96.3686V65.7096H93.1249V75.4026H94.2545V76.1582H90.3925V75.4026H91.5221V65.7096Z" fill="#111827"/>
<path d="M55.5512 88.0712L54.5209 90.7044H55.6504V91.46H52.9486V90.7044H53.605L57.8256 79.9734H58.7339L62.9545 90.7044H63.6109V91.46H60.2069V90.7044H61.2373L60.1993 88.0712H55.5512ZM55.8489 87.3156H59.9016L57.8714 82.1639L55.8489 87.3156ZM72.5636 91.46H64.6565V90.7044H65.7861V80.9122H64.6565V80.1642H68.4192V80.9122H67.3889V90.6128H71.6248V89.2008H72.5636V91.46ZM77.7917 93.5817V91.5058H78.7304V92.6811C78.8933 92.7727 79.0561 92.8414 79.2189 92.8872C79.3817 92.9381 79.5445 92.9635 79.7074 92.9635C80.1704 92.9635 80.5164 92.7422 80.7454 92.2995C80.9743 91.8568 81.0888 91.1928 81.0888 90.3075V80.9122H79.7684V80.1642H83.7219V80.9122H82.684V89.3687C82.684 90.9715 82.4194 92.096 81.8902 92.7422C81.361 93.3935 80.4426 93.7191 79.1349 93.7191C78.9263 93.7191 78.7101 93.7064 78.4862 93.681C78.2623 93.6606 78.0308 93.6275 77.7917 93.5817ZM87.2709 88.0712L86.2406 90.7044H87.3702V91.46H84.6683V90.7044H85.3247L89.5454 79.9734H90.4536L94.6743 90.7044H95.3306V91.46H91.9266V90.7044H92.957L91.919 88.0712H87.2709ZM87.5686 87.3156H91.6213L89.5912 82.1639L87.5686 87.3156ZM96.6205 91.46V90.7044L102.742 80.9122H97.7501V82.0417H96.9029V80.1642H104.52V80.9122L98.4522 90.6128H103.65V89.3916H104.497V91.46H96.6205ZM114.221 91.46H106.451V90.7044H107.58V80.9122H106.451V80.1642H113.892V82.0417H113.045V80.9122H109.183V85.2473H111.916V84.3009H112.664V86.9417H111.916V85.9953H109.183V90.6128H113.373V89.3916H114.221V91.46ZM123.211 91.46H115.442V90.7044H116.571V80.9122H115.442V80.1642H122.883V82.0417H122.036V80.9122H118.174V85.2473H120.906V84.3009H121.654V86.9417H120.906V85.9953H118.174V90.6128H122.364V89.3916H123.211V91.46ZM127.165 86.4685V90.7044H128.294V91.46H124.432V90.7044H125.562V80.9122H124.432V80.1642H128.439C129.711 80.1642 130.663 80.4008 131.294 80.874C131.93 81.3421 132.248 82.0494 132.248 82.9958C132.248 83.7641 132.052 84.4103 131.66 84.9344C131.268 85.4585 130.681 85.8604 129.897 86.1403L132.912 90.7044H133.751V91.46H131.416L128.325 86.4685H127.165ZM127.165 85.7129H127.646C128.618 85.7129 129.345 85.4915 129.828 85.0489C130.312 84.6011 130.554 83.9345 130.554 83.0492C130.554 82.23 130.335 81.6703 129.897 81.3701C129.46 81.0648 128.643 80.9122 127.447 80.9122H127.165V85.7129ZM137.018 88.0712L135.988 90.7044H137.117V91.46H134.416V90.7044H135.072L139.293 79.9734H140.201L144.421 90.7044H145.078V91.46H141.674V90.7044H142.704L141.666 88.0712H137.018ZM137.316 87.3156H141.369L139.338 82.1639L137.316 87.3156Z" fill="#F15A29"/>
<path d="M99.9373 95.9517C99.5479 96.1846 99.0938 96.301 98.5752 96.301C97.9157 96.301 97.3952 96.0965 97.0136 95.6875C96.632 95.2785 96.4411 94.7188 96.4411 94.0084C96.4411 93.2882 96.6241 92.7305 96.9901 92.3351C97.358 91.9379 97.8756 91.7392 98.543 91.7392C98.7191 91.7392 98.9197 91.7578 99.1447 91.795C99.3698 91.8302 99.6203 91.8841 99.8962 91.9565V92.752H99.5704L99.5175 92.3058C99.359 92.2119 99.2025 92.1424 99.0479 92.0974C98.8952 92.0504 98.7435 92.0269 98.5929 92.0269C98.1388 92.0269 97.7748 92.2099 97.5009 92.5759C97.2288 92.9418 97.0928 93.4291 97.0928 94.0377C97.0928 94.6072 97.2445 95.0759 97.5478 95.4438C97.8512 95.8098 98.2386 95.9928 98.7103 95.9928C99.1545 95.9928 99.5635 95.8656 99.9373 95.6112V95.9517ZM101.411 94.889L101.015 95.9018H101.449V96.1924H100.41V95.9018H100.662L102.286 91.7745H102.635L104.258 95.9018H104.511V96.1924H103.202V95.9018H103.598L103.199 94.889H101.411ZM101.525 94.5984H103.084L102.303 92.617L101.525 94.5984ZM105.964 94.2726V95.9018H106.398V96.1924H104.913V95.9018H105.347V92.1355H104.913V91.8479H106.454C106.943 91.8479 107.309 91.9389 107.552 92.1209C107.797 92.3009 107.919 92.5729 107.919 92.9369C107.919 93.2324 107.844 93.481 107.693 93.6825C107.542 93.8841 107.316 94.0387 107.015 94.1463L108.174 95.9018H108.497V96.1924H107.599L106.41 94.2726H105.964ZM105.964 93.982H106.149C106.523 93.982 106.802 93.8968 106.988 93.7266C107.174 93.5544 107.267 93.298 107.267 92.9575C107.267 92.6424 107.183 92.4271 107.015 92.3117C106.846 92.1942 106.532 92.1355 106.072 92.1355H105.964V93.982ZM109.058 96.1043V95.2706H109.384L109.419 95.7051C109.581 95.8069 109.73 95.8842 109.865 95.937C110.002 95.9879 110.125 96.0133 110.235 96.0133C110.48 96.0133 110.681 95.939 110.84 95.7902C111 95.6395 111.08 95.4487 111.08 95.2178C111.08 95.0241 111.031 94.8597 110.931 94.7246C110.829 94.5896 110.65 94.4497 110.394 94.3049L110.088 94.1287C109.724 93.9232 109.467 93.7276 109.316 93.5416C109.166 93.3538 109.09 93.1395 109.09 92.8988C109.09 92.5661 109.21 92.2901 109.448 92.071C109.687 91.8498 109.986 91.7392 110.347 91.7392C110.544 91.7392 110.738 91.7539 110.928 91.7833C111.118 91.8126 111.304 91.8576 111.486 91.9183V92.6815H111.16L111.122 92.2647C110.994 92.1845 110.868 92.1248 110.743 92.0856C110.62 92.0465 110.498 92.0269 110.379 92.0269C110.195 92.0269 110.037 92.0993 109.906 92.2441C109.775 92.387 109.71 92.5602 109.71 92.7637C109.71 93.0651 109.906 93.3273 110.3 93.5504L110.608 93.7266C111.034 93.9692 111.322 94.1806 111.471 94.3606C111.62 94.5407 111.694 94.7667 111.694 95.0387C111.694 95.4008 111.559 95.7022 111.289 95.9429C111.021 96.1816 110.685 96.301 110.282 96.301C110.047 96.301 109.827 96.2844 109.621 96.2511C109.418 96.2178 109.23 96.1689 109.058 96.1043ZM114.991 94.889L114.594 95.9018H115.029V96.1924H113.99V95.9018H114.242L115.865 91.7745H116.215L117.838 95.9018H118.09V96.1924H116.781V95.9018H117.177L116.778 94.889H114.991ZM115.105 94.5984H116.664L115.883 92.617L115.105 94.5984ZM118.854 92.1355H118.419V91.8479H119.866V92.1355H119.47V94.4487C119.47 94.8244 119.488 95.0984 119.523 95.2706C119.56 95.4429 119.63 95.5847 119.731 95.6963C119.921 95.9057 120.172 96.0104 120.483 96.0104C120.782 96.0104 121.029 95.9125 121.223 95.7168C121.407 95.5329 121.498 95.1532 121.498 94.5779V92.1355H121.064V91.8479H122.367V92.1355H121.933V94.4193C121.933 94.8225 121.91 95.116 121.865 95.3C121.822 95.484 121.732 95.6611 121.595 95.8313C121.343 96.1444 120.952 96.301 120.424 96.301C119.882 96.301 119.485 96.163 119.232 95.8871C118.98 95.6092 118.854 95.1718 118.854 94.5749V92.1355ZM126.445 95.9517C126.055 96.1846 125.601 96.301 125.083 96.301C124.423 96.301 123.903 96.0965 123.521 95.6875C123.139 95.2785 122.949 94.7188 122.949 94.0084C122.949 93.2882 123.132 92.7305 123.498 92.3351C123.865 91.9379 124.383 91.7392 125.05 91.7392C125.227 91.7392 125.427 91.7578 125.652 91.795C125.877 91.8302 126.128 91.8841 126.404 91.9565V92.752H126.078L126.025 92.3058C125.866 92.2119 125.71 92.1424 125.555 92.0974C125.403 92.0504 125.251 92.0269 125.1 92.0269C124.646 92.0269 124.282 92.2099 124.008 92.5759C123.736 92.9418 123.6 93.4291 123.6 94.0377C123.6 94.6072 123.752 95.0759 124.055 95.4438C124.359 95.8098 124.746 95.9928 125.218 95.9928C125.662 95.9928 126.071 95.8656 126.445 95.6112V95.9517ZM128.602 92.1737H127.352V92.6786H127.026V91.8479H130.792V92.6786H130.466V92.1737H129.219V95.9018H129.653V96.1924H128.168V95.9018H128.602V92.1737ZM132.313 92.1355V95.9018H132.747V96.1924H131.262V95.9018H131.696V92.1355H131.262V91.8479H132.747V92.1355H132.313ZM135.41 96.301C134.787 96.301 134.296 96.0975 133.936 95.6904C133.578 95.2834 133.399 94.7266 133.399 94.0201C133.399 93.3136 133.578 92.7569 133.936 92.3498C134.294 91.9428 134.785 91.7392 135.41 91.7392C136.032 91.7392 136.522 91.9428 136.88 92.3498C137.239 92.7569 137.418 93.3136 137.418 94.0201C137.418 94.7266 137.239 95.2834 136.88 95.6904C136.522 96.0975 136.032 96.301 135.41 96.301ZM135.41 96.0104C135.823 96.0104 136.151 95.8303 136.396 95.4703C136.643 95.1082 136.766 94.6248 136.766 94.0201C136.766 93.4154 136.643 92.932 136.396 92.57C136.151 92.2079 135.823 92.0269 135.41 92.0269C134.997 92.0269 134.667 92.2079 134.421 92.57C134.174 92.9301 134.051 93.4135 134.051 94.0201C134.051 94.6248 134.174 95.1082 134.421 95.4703C134.667 95.8303 134.997 96.0104 135.41 96.0104ZM141.169 96.2482L138.906 92.7402V95.9018H139.34V96.1924H138.072V95.9018H138.507V92.1355H138.072V91.8479H138.982L141.284 95.3616V92.1355H140.852V91.8479H142.117V92.1355H141.683V96.2482H141.169ZM142.751 96.1043V95.2706H143.077L143.112 95.7051C143.275 95.8069 143.424 95.8842 143.559 95.937C143.696 95.9879 143.819 96.0133 143.929 96.0133C144.173 96.0133 144.375 95.939 144.533 95.7902C144.694 95.6395 144.774 95.4487 144.774 95.2178C144.774 95.0241 144.724 94.8597 144.624 94.7246C144.523 94.5896 144.343 94.4497 144.087 94.3049L143.782 94.1287C143.418 93.9232 143.16 93.7276 143.01 93.5416C142.859 93.3538 142.784 93.1395 142.784 92.8988C142.784 92.5661 142.903 92.2901 143.142 92.071C143.381 91.8498 143.68 91.7392 144.04 91.7392C144.238 91.7392 144.432 91.7539 144.621 91.7833C144.811 91.8126 144.997 91.8576 145.179 91.9183V92.6815H144.853L144.815 92.2647C144.688 92.1845 144.562 92.1248 144.436 92.0856C144.313 92.0465 144.192 92.0269 144.072 92.0269C143.888 92.0269 143.731 92.0993 143.6 92.2441C143.469 92.387 143.403 92.5602 143.403 92.7637C143.403 93.0651 143.6 93.3273 143.993 93.5504L144.301 93.7266C144.728 93.9692 145.016 94.1806 145.164 94.3606C145.313 94.5407 145.387 94.7667 145.387 95.0387C145.387 95.4008 145.252 95.7022 144.982 95.9429C144.714 96.1816 144.379 96.301 143.976 96.301C143.741 96.301 143.521 96.2844 143.315 96.2511C143.112 96.2178 142.924 96.1689 142.751 96.1043Z" fill="#111827"/>
</g>
</svg>
